<svg width="523" height="250" viewBox="0 0 523 250" fill="none" xmlns="http://www.w3.org/2000/svg">
<path d="M463.797 108.959C463.797 48.7821 373.159 0 261.358 0C149.556 0 58.918 48.7821 58.918 108.959C58.918 114.382 59.6563 119.708 61.0807 124.922C59.6628 130.129 58.918 135.461 58.918 140.884C58.918 201.061 149.55 249.843 261.358 249.843C373.166 249.843 463.797 201.061 463.797 140.884C463.797 135.461 463.059 130.136 461.635 124.922C463.053 119.714 463.797 114.382 463.797 108.959ZM82.734 72.7615C87.3274 66.9136 93.0576 61.2422 99.7614 55.904C106.537 50.507 114.345 45.4171 122.983 40.765C140.775 31.1863 161.572 23.6527 184.794 18.3668C209.021 12.8522 234.778 10.0557 261.358 10.0557C287.938 10.0557 313.694 12.8522 337.922 18.3668C361.143 23.6527 381.941 31.1928 399.733 40.765C408.364 45.4106 416.178 50.507 422.954 55.904C429.658 61.2422 435.388 66.9136 439.981 72.7615C448.58 83.7058 453.186 95.1466 453.69 106.797C427.11 63.3135 351.042 31.9181 261.358 31.9181C171.673 31.9181 95.6058 63.3135 69.0259 106.797C69.5356 95.1401 74.1354 83.6992 82.734 72.7615ZM451.141 124.922C448.881 131.808 445.156 138.571 439.975 145.164C435.382 151.011 429.651 156.683 422.948 162.021C416.172 167.418 408.364 172.508 399.726 177.16C381.934 186.739 361.137 194.272 337.915 199.558C313.688 205.073 287.931 207.869 261.351 207.869C234.771 207.869 209.015 205.073 184.787 199.558C161.565 194.272 140.768 186.732 122.976 177.16C114.345 172.514 106.53 167.418 99.7548 162.021C93.051 156.683 87.3208 151.011 82.7275 145.164C77.5526 138.577 73.8218 131.808 71.5611 124.922C73.8218 118.035 77.5461 111.272 82.7275 104.68C87.3208 98.8317 93.051 93.1603 99.7548 87.8221C106.53 82.4251 114.338 77.3352 122.976 72.6831C140.768 63.1044 161.565 55.5708 184.787 50.2849C209.015 44.7703 234.771 41.9738 261.351 41.9738C287.931 41.9738 313.688 44.7703 337.915 50.2849C361.137 55.5708 381.934 63.1109 399.726 72.6831C408.357 77.3287 416.172 82.4251 422.948 87.8221C429.651 93.1603 435.382 98.8317 439.975 104.68C445.15 111.266 448.881 118.035 451.141 124.922ZM439.975 177.082C435.382 182.93 429.651 188.601 422.948 193.939C416.172 199.336 408.364 204.426 399.726 209.078C381.934 218.657 361.137 226.19 337.915 231.476C313.688 236.991 287.931 239.787 261.351 239.787C234.771 239.787 209.015 236.991 184.787 231.476C161.565 226.19 140.768 218.65 122.976 209.078C114.345 204.433 106.53 199.336 99.7548 193.939C93.051 188.601 87.3208 182.93 82.7275 177.082C74.1289 166.137 69.5225 154.697 69.0194 143.047C95.5993 186.53 171.667 217.925 261.351 217.925C351.035 217.925 427.103 186.53 453.683 143.047C453.173 154.703 448.573 166.144 439.975 177.082Z" fill="#004E41"/>
<path d="M30.1147 115.527C27.0242 112.776 22.6726 111.463 18.6085 111.463C16.4916 111.463 11.3951 111.692 11.3951 114.841C11.3951 121.826 36.9884 117.246 36.9884 133.051C36.9884 143.126 27.0242 145.59 19.0071 145.59C12.1334 145.59 4.17516 143.643 0 137.743L7.04354 131.215C9.73551 135.397 14.7143 136.939 19.5233 136.939C22.4439 136.939 27.3705 136.769 27.3705 133.215C27.3705 126.4 1.54853 130.065 1.54853 115.638C1.54853 105.962 11.1076 102.871 18.7262 102.871C24.5086 102.871 30.8661 103.845 35.5575 107.569L30.1147 115.527Z" fill="#004E41"/>
<path d="M500.177 147.151L476.785 103.563H488.063L500.17 129.673L511.996 103.563H522.705L500.17 147.151H500.177Z" fill="#004E41"/>
</svg>
