<svg width="268" height="166" viewBox="0 0 268 166" fill="none" xmlns="http://www.w3.org/2000/svg">
<path d="M40.5642 76.4566C38.5174 74.6376 35.6364 73.7666 32.9463 73.7666C31.5427 73.7666 28.1692 73.9173 28.1692 76.0044C28.1692 80.6274 45.1102 77.5956 45.1102 88.0577C45.1102 94.7275 38.514 96.359 33.2076 96.359C28.6583 96.359 23.3921 95.0692 20.625 91.1665L25.2882 86.845C27.0704 89.6121 30.3668 90.6338 33.5493 90.6338C35.4823 90.6338 38.7418 90.5199 38.7418 88.1716C38.7418 83.6625 21.6501 86.0879 21.6501 76.537C21.6501 70.1318 27.9783 68.085 33.02 68.085C36.8491 68.085 41.0567 68.7282 44.1621 71.1938L40.5609 76.4633L40.5642 76.4566Z" fill="#004E41"/>
<path d="M51.2852 95.7074V68.5322H57.7272V95.7074H51.2852Z" fill="#004E41"/>
<path d="M93.0561 91.5417C90.9322 94.1949 86.3863 96.3188 80.6243 96.3188C71.452 96.3188 64.1758 91.2033 64.1758 82.1449C64.1758 73.9977 70.0517 68.085 81.3445 68.085C87.2204 68.085 91.6156 70.2457 93.2069 72.4433L89.15 77.3712C87.2941 75.0965 84.5639 74.0346 80.6209 74.0346C74.4435 74.0346 70.8054 77.2573 70.8054 82.1449C70.8054 87.0326 74.5943 90.2184 80.6209 90.2184C84.2959 90.2184 87.2171 89.3843 88.9959 86.922L93.0528 91.545L93.0561 91.5417Z" fill="#004E41"/>
<path d="M133.308 97.3848L117.828 68.5312H125.295L133.312 85.8106L141.141 68.5312H148.229L133.315 97.3848H133.308Z" fill="#004E41"/>
<path d="M165.846 96.359C156.674 96.359 149.512 90.9387 149.512 82.4866C149.512 74.0346 156.031 68.085 165.846 68.085C175.662 68.085 182.332 74.0346 182.332 82.4866C182.332 90.9387 175.434 96.359 165.846 96.359ZM165.846 74.1485C160.312 74.1485 156.068 77.2941 156.068 82.4866C156.068 87.6791 160.389 90.4094 165.846 90.4094C171.303 90.4094 175.625 87.6791 175.625 82.4866C175.625 77.2941 171.531 74.1485 165.846 74.1485Z" fill="#004E41"/>
<path d="M188.625 95.7064V68.5312H195.067V89.7166H210.986V95.7064H188.625Z" fill="#004E41"/>
<path d="M230.881 96.359C221.709 96.359 214.547 90.9387 214.547 82.4866C214.547 74.0346 221.066 68.085 230.881 68.085C240.697 68.085 247.367 74.0346 247.367 82.4866C247.367 90.9387 240.469 96.359 230.881 96.359ZM230.881 74.1485C225.347 74.1485 221.103 77.2941 221.103 82.4866C221.103 87.6791 225.424 90.4094 230.881 90.4094C236.339 90.4094 240.66 87.6791 240.66 82.4866C240.66 77.2941 236.566 74.1485 230.881 74.1485Z" fill="#004E41"/>
<path d="M134 0C59.9952 0 0 32.2906 0 72.1221C0 75.71 0.4891 79.2375 1.43045 82.6847C0.4891 86.1318 0 89.6594 0 93.2472C0 133.079 59.9952 165.369 134 165.369C208.005 165.369 268 133.079 268 93.2472C268 89.6594 267.511 86.1318 266.57 82.6847C267.511 79.2375 268 75.71 268 72.1221C268 32.2906 208.005 0 134 0ZM15.7651 48.1629C18.8069 44.2937 22.5957 40.5383 27.0345 37.0041C31.5168 33.433 36.6892 30.0595 42.4043 26.9842C54.1829 20.646 67.9481 15.6545 83.3212 12.1571C99.3577 8.50565 116.409 6.65645 134.003 6.65645C151.598 6.65645 168.649 8.509 184.686 12.1571C200.059 15.6579 213.824 20.646 225.602 26.9842C231.318 30.0595 236.49 33.4296 240.972 37.0041C245.408 40.5383 249.2 44.2937 252.242 48.1629C257.933 55.4056 260.982 62.98 261.317 70.6917C243.723 41.9085 193.372 21.1284 134.003 21.1284C74.6347 21.1284 24.2841 41.9085 6.6866 70.6917C7.0216 62.9766 10.0701 55.4056 15.7618 48.1629H15.7651ZM259.628 82.688C258.134 87.2474 255.665 91.7263 252.238 96.0847C249.196 99.9539 245.408 103.709 240.969 107.244C236.487 110.815 231.314 114.188 225.599 117.263C213.82 123.602 200.055 128.593 184.682 132.09C168.646 135.742 151.594 137.591 134 137.591C116.406 137.591 99.3543 135.739 83.3179 132.09C67.9447 128.59 54.1796 123.602 42.401 117.263C36.6859 114.188 31.5135 110.818 27.0312 107.244C22.5924 103.709 18.8036 99.9539 15.7618 96.0847C12.3347 91.7263 9.8691 87.244 8.37165 82.688C9.86575 78.132 12.3347 73.6497 15.7618 69.2914C18.8036 65.4221 22.5924 61.6668 27.0312 58.1325C31.5135 54.5614 36.6859 51.188 42.401 48.1127C54.1796 41.7745 67.9447 36.783 83.3179 33.2856C99.3543 29.6341 116.406 27.7849 134 27.7849C151.594 27.7849 168.646 29.6374 184.682 33.2856C200.055 36.7863 213.82 41.7745 225.599 48.1127C231.314 51.188 236.487 54.5581 240.969 58.1325C245.404 61.6668 249.196 65.4221 252.238 69.2914C255.665 73.6497 258.131 78.132 259.628 82.688ZM252.238 117.213C249.196 121.082 245.408 124.838 240.969 128.372C236.487 131.943 231.314 135.317 225.599 138.392C213.82 144.73 200.055 149.722 184.682 153.219C168.646 156.87 151.594 158.72 134 158.72C116.406 158.72 99.3543 156.867 83.3179 153.219C67.9447 149.718 54.1796 144.73 42.401 138.392C36.6859 135.317 31.5135 131.946 27.0312 128.372C22.5924 124.838 18.8036 121.082 15.7618 117.213C10.0701 109.97 7.0216 102.396 6.6866 94.6844C24.2808 123.468 74.6313 144.248 134 144.248C193.369 144.248 243.716 123.468 261.313 94.6844C260.978 102.399 257.93 109.97 252.238 117.213Z" fill="#004E41"/>
</svg>
